/* XPM */
static char * bug_3d[] = {
"56 46 30 1",
"ä	c None",
" 	c #FFFFFBEEFFFF",
".	c #BEFBB6DABEFB",
"X	c #BEFBBAEABEFB",
"o	c #000000001040",
"O	c #C71BBAEAC71B",
"+	c #AEBAA699AEBA",
"@	c #082004100820",
"#	c #000000000000",
"$	c #FFFFFFFFD75C",
"%	c #DF7DBAEA8E38",
"&	c #F7DEB2CAAEBA",
"*	c #AEBA61856185",
"=	c #AEBAAEBAB6DA",
"-	c #000008200820",
";	c #8E38861779E7",
":	c #AEBAAAAAAEBA",
">	c #A69979E78E38",
",	c #FFFFFFFFFFFF",
"<	c #000000001861",
"1	c #5144A2894924",
"2	c #9E799A699E79",
"3	c #B6DAAEBAB6DA",
"4	c #8E388A288E38",
"5	c #FFFFF3CEFFFF",
"6	c #A6999E79A699",
"7	c #96589658AEBA",
"8	c #71C675D671C6",
"9	c #965896589658",
"0	c #71C679E78617",
"                                                       .",
" ..X..X...X..X...X..X...X..X...X..X...X..X...X..X...X..o",
" .O.O.O.O.O.O.O.O.O.O.O.O.O.O.O.O.O.O.O.O.O.O.O.O.O.O.Oo",
" X.....................................................o",
" +XO.+O.O+XO.+O.O+XO.+O.O+XO.+O.O+XO.+O.O+XO.+O.O+XO.+Xo",
" O...X.X.....X.X.....X.X.....X.X.....X.X.....X...X...O.o",
" +.+O+.+.+O+.+.+.+O+.+.+.+O+.+.+.+O+.+.+.+O+.+O+.+.+X+.o",
" .O...+.OX...O+.@###@#@#@####@#@@X...O+.OX..O.+..O.O.X+o",
" +.+.+O+.+.+O+.+@$$$$$$$$$$$$$$#%#O+.+.+.+.+.+.+X+.+.+.o",
" ..O+...+.O.+.X.#$$$$$$$$$$$$$$@%%#.+.O.+.O.+.O.+O..+.Oo",
" +X+.+O+.+.+.+O+#$$$$$$$$$$$$$$#%%%@O+.+.+.+.+.+.+.+O+.o",
" .+.O.+.+.+.O.+.#$$$$$$$$$$$$$$o%%%%#.+O+.+O.O+.+.+...+o",
" +.+.+.+O+.+.+.+#$$$$$$$$$$$$$$#%%%%%@.+.+.+.+.+O+.+O+.o",
" O+.+.+.+.+.+.+X#$$$$$$$$$$$$$$o%%&%%%#.+O+.+X+.+.+.+X+o",
" +.+O+X+O+.+O+.+#$$$$$$$$$$$$$$#@o@@o@##*=.+O+.+O+.+.+.o",
" ++.+++.+++.+++X#$$$$$$$$$$$$$$$%%%%%%%-;:+.+++.+++O+++o",
" +X+.+.+.+O+.+.+#$$$$$$$$$$$$$$$%%%%%%%@>=.+.+.+.+.+.+Xo",
" +++++++++++++++#$$$$$$$$$$$$$$$$$$,$$$<1++++++++++++++o",
" +.+O+.+O+.+.+O+#$$$$$$$$$$$$$$$$$$$$$$@>+.+O+.+O+.+.+Xo",
" +++++++++++++++#$$$$$$$$$$$$$$$$$$$$$$#;++++++++++++++o",
" +++.+++.+++.+++#$$$$$$$$$$$$$$$$$$$$$$@>=++.+++.+++O++o",
" +++++++++++++++#$$$$$$$$$$$$$$$$$$$$$$o1++++++++++++++o",
" +++++++++++++++#$$$$$$$$#$$##$$$$$$$$$#>++++++++++++++o",
" +++++++++++++++#$$$$$#$$#$###@$$$$$$$$#;++++++++++++++o",
" 2+++2+++2+++2++#$$$$$$#$##$###$$$$$$$$#>2+++2+++2+++2+o",
" +++++++++++++++#$$$$$$$######$$$$$$$$$o1++++++++++++++o",
" ++2+2+2+++2+2+2#$$$###$#####$$$$$$$$$$o>3+2+2+2+++2+2+o",
" +++++++++++++++#$$$$$##$######$$$$$$$$-*++++++++++++++o",
" 2+2+2+2+2+2+2+2#$$$$#$#####$$$$$$$$$$$@42+2+2+2+2+2+2+o",
"5+++++++++++++++#$$$######$$#$$$$$$$$$$<1++++++++++++++o",
" 2+2+2+2+2+2+2+2#$$$######$$$#$$$$$$$$$o>6+2+2+2+2+2+2+o",
"5+2++62++62+++2+#$$$#######$$$$$$$$$$$$-*+2++62++62+++2o",
" 2+2+2+2+2+262+2#$$$#####$#$$$$$$$$$$$$@42+2+2+2+2+2+2+o",
"5+262+2+2+2+2+2+#$$$$###$$#$$$$$$$$$$$$<1+2+2+2+2+262+2o",
" 2+2+2+2+26662+2#$$$$$$$$$$$$$$$$$$$$$$#>662+2+2+26662+o",
"5266222+>226622+#$$$$$$$$$$$$$$$$$$$$$$#>27+>22+>62+222o",
" 2+26666+6+26662#$$$$$$$$$$$$$$$$$$$$$$#8262+7+2+762+2+o",
"5222222222962222########################;22222222226222o",
" 266626262626662+*1>1>>1>>1>>1>>1>>1>>1>07+66662+262666o",
"52627>6222222222276662262262262262262266222222227>22222o",
" 292+62>+7>6+222+622+6226926+2226762+622+22>+2>6+622662o",
"52229227627227>22922222222229262722222229227227227>2222o",
" 2+>76922266>2722262>72922+222922262292>7662222292+7222o",
"52722227>22272227>26227>227>227>2227>276222227>22222>22o",
" 2222>62222222226222222622222262222222292>7222222>72722o",
".oooo<oo<ooooooooo<o<ooooooo<ooooooo<ooo<<oooo<o<<oooooo"};
