#define binoculars_width 16
#define binoculars_height 16
static char binoculars_bits[] = {
 0x00,0x00,0x00,0x00,0x38,0x0e,0x28,0x0a,0x38,0x0e,0x7c,0x1f,0x74,0x1d,0xfe,
 0x3f,0xbb,0x7d,0xbb,0x7d,0xfb,0x7d,0x7f,0x7f,0x1d,0x74,0x1d,0x74,0x1f,0x7c,
 0x00,0x00};
