#define select_width 16
#define select_height 16
static unsigned char select_bits[] = {
 0x00,0x00,0x00,0x00,0xff,0x07,0x01,0x04,0xfd,0x05,0x01,0x00,0x79,0x0f,0x01,
 0x07,0x7d,0x07,0x01,0x09,0x7d,0x10,0x01,0x24,0xfd,0x05,0x01,0x04,0xff,0x07,
 0x00,0x00};
