#define textrect0_width 16
#define textrect0_height 16
#define textrect0_x_hot -1
#define textrect0_y_hot -1
static unsigned char textrect0_bits[] = {
   0xfe, 0x7f, 0x02, 0x40, 0x02, 0x40, 0xc2, 0x4f, 0x02, 0x40, 0xf2, 0x4f,
   0x02, 0x40, 0xf2, 0x4f, 0x02, 0x40, 0xf2, 0x4f, 0x02, 0x40, 0xf2, 0x4f,
   0x02, 0x40, 0xf2, 0x43, 0x02, 0x40, 0xfe, 0x7f};
