/* XPM */
static char*wheel[]={
"22 22 6 1",
"d c #808080",
"b c #a0a0a4",
"c c #c0c0c0",
"# c #000000",
". c None",
"a c #ffffff",
"......................",
"......................",
"..........##..........",
".........#ab#.........",
".....##..#ab#..##.....",
"....#ba##accd##ab#....",
"....#dcaaccccaacd#....",
".....#bccccccccd#.....",
".....#accbdbcccb#.....",
"...##accbd##acccb##...",
"..#aacccd#..#acccab#..",
"..#ddcccb#..#acccdd#..",
"...##bbcca##acccd##...",
".....#bcccaacccd#.....",
".....#accccccccd#.....",
"....#acdbcccccacd#....",
"....#bd##accb##bd#....",
".....##..#ad#..##.....",
".........#ad#.........",
"..........##..........",
"......................",
"......................"};
