/* XPM */
static char*index3[]={
"22 22 3 1",
"a c #0000ff",
". c None",
"# c #000000",
"......................",
".##############.......",
".#............#.......",
".#............#.......",
".#............#.......",
".#............#.......",
".#............#.......",
".#............#.......",
".#............#.......",
".#............#.......",
".#............#.......",
".#............#.......",
".#............#.......",
".#............#.......",
".##############.......",
"...............a.....a",
"................a...a.",
".................a.a..",
"..................a...",
".................a.a..",
"................a...a.",
"...............a.....a"};
