/* XPM */
static char * book_xpm[] = {
"16 16 5 1",
" 	c None",
"A	c #FFFFFFFFFFFF",
".	c #000082078207",
"X	c #82077DF77DF7",
"o	c #FFFFFFFFFFFF",
"                ",
"                ",
"       ..       ",
"     .....      ",
"   ........     ",
" Xo.........    ",
" AXo.........   ",
" .AXo.........  ",
" ..AXo........  ",
" ...AXo.....AAX ",
"  ...AXo..AAooX ",
"   ...AXAAoooX  ",
"    ..AAoooX    ",
"     .AXoX      ",
"       X        ",
"                "};
