/* XPM */
static char * elec_off_xpm[] = {
"15 15 22 1",
" 	c None",
".	c #303030",
"+	c #B4947E",
"@	c #AF907B",
"#	c #AB8C77",
"$	c #A78874",
"%	c #A28470",
"&	c #B89882",
"*	c #9E806D",
"=	c #997C69",
"-	c #957866",
";	c #917462",
">	c #8D715F",
",	c #886D5B",
"'	c #846958",
")	c #7F6554",
"!	c #7B6151",
"~	c #775D4D",
"{	c #72594A",
"]	c #6E5546",
"^	c #745B4B",
"/	c #715748",
"     .....     ",
"   ..+@#$%..   ",
"  .&+@#$%*=-.  ",
" .&+@#$%*=-;>. ",
" .+@#$%*=-;>,. ",
".+@#$%*=-;>,').",
".@#$%*=-;>,')!.",
".#$%*=-;>,')!~.",
".$%*=-;>,')!~{.",
".%*=-;>,')!~{].",
" .=-;>,')!~{]. ",
" .-;>,')!~{^/. ",
"  .>,')!~{^/.  ",
"   ..)!~{^..   ",
"     .....     "};
