/* XPM */
static char * elec_on_xpm[] = {
"15 15 36 1",
" 	c None",
".	c #525151",
"+	c #525150",
"@	c #52514F",
"#	c #52504F",
"$	c #514F4E",
"%	c #535251",
"&	c #F0E9E4",
"*	c #EEE7E1",
"=	c #EDE4DE",
"-	c #ECE1DA",
";	c #EADFD7",
">	c #514F4D",
",	c #514E4C",
"'	c #F1ECE8",
")	c #E9DCD3",
"!	c #E7DAD0",
"~	c #E6D7CD",
"{	c #504D4B",
"]	c #E4D5C9",
"^	c #E3D2C6",
"/	c #504C4A",
"(	c #E2CFC3",
"_	c #4F4C49",
":	c #E0CDBF",
"<	c #DFCABC",
"[	c #4F4B48",
"}	c #DDC8B9",
"|	c #4F4A47",
"1	c #DCC5B5",
"2	c #4E4A47",
"3	c #DAC3B2",
"4	c #4E4946",
"5	c #D9C0AE",
"6	c #D8BDAB",
"7	c #4D4945",
"     .+@#$     ",
"   %.&*=-;>,   ",
"  %'&*=-;)!~{  ",
" %'&*=-;)!~]^/ ",
" .&*=-;)!~]^(_ ",
".&*=-;)!~]^(:<[",
"+*=-;)!~]^(:<}|",
"@=-;)!~]^(:<}12",
"#-;)!~]^(:<}134",
"$;)!~]^(:<}1354",
" >!~]^(:<}1354 ",
" ,~]^(:<}13567 ",
"  {^(:<}13567  ",
"   /_<}13547   ",
"     [|244     "};
