/* XPM */
static char * back_xpm[] = {
"16 16 86 1",
" 	c None",
".	c #3269D2",
"+	c #326CD7",
"@	c #3472E5",
"#	c #5183E0",
"$	c #5B88DC",
"%	c #3472E4",
"&	c #326BD4",
"*	c #3368CA",
"=	c #326AD3",
"-	c #4980E6",
";	c #A8C2F5",
">	c #E4EBF8",
",	c #F2F5FB",
"'	c #EBF0FA",
")	c #B9CCF0",
"!	c #5789E4",
"~	c #3269CE",
"{	c #326AD2",
"]	c #6494EC",
"^	c #D4E0F4",
"/	c #E1E9F8",
"(	c #ABC1EC",
"_	c #DCE6F6",
":	c #799FE5",
"<	c #3269CF",
"[	c #C4D4F1",
"}	c #CDDAF4",
"|	c #FFFFFF",
"1	c #CBD9F3",
"2	c #5A8AE3",
"3	c #3467C4",
"4	c #90B1EC",
"5	c #B8CCEE",
"6	c #EDF2FA",
"7	c #B7CAEE",
"8	c #97B3E4",
"9	c #3873E0",
"0	c #A1BAE9",
"a	c #A3BCEA",
"b	c #E7EEF9",
"c	c #95B1E6",
"d	c #4987F8",
"e	c #3B80FF",
"f	c #3471E3",
"g	c #4A7FE2",
"h	c #8CACE5",
"i	c #CEDFFF",
"j	c #3676EB",
"k	c #447CE5",
"l	c #6E99E8",
"m	c #B9CEF4",
"n	c #3C81FF",
"o	c #3776EB",
"p	c #3C66B6",
"q	c #3572E4",
"r	c #4686FC",
"s	c #D0E0FE",
"t	c #9DC0FF",
"u	c #6DA1FF",
"v	c #4083FF",
"w	c #4887FC",
"x	c #4888FC",
"y	c #D1E1FE",
"z	c #6CA0FF",
"A	c #4083FE",
"B	c #4486FC",
"C	c #4687FC",
"D	c #4A80E4",
"E	c #6696EE",
"F	c #D8E4FA",
"G	c #3766BE",
"H	c #346ACC",
"I	c #6C94E0",
"J	c #7EA3E6",
"K	c #DEE7F8",
"L	c #3469CB",
"M	c #356ACC",
"N	c #658EDB",
"O	c #8DACE7",
"P	c #8EADE8",
"Q	c #3569CA",
"R	c #3E71CF",
"S	c #5E88D5",
"T	c #6E95DC",
"U	c #3E70CF",
"                ",
"    .+@#$%&*    ",
"   =-;>,,')!~   ",
"  {]^//((//_:~  ",
" <-[}}(||(}}123 ",
" &455(||655578= ",
" 90a(||baaacdef ",
" gh(||||||||iej ",
" klm|||||||||nop",
" qrrs||ittttuv% ",
" &wxxy||znABCw= ",
" *DEEEF||EEEEDG ",
"  HIJJJKKJJJIL  ",
"   MNOPPPPONQ   ",
"    3RSTTSUG    ",
"        p       "};
