/* XPM */
static char * forward_xpm[] = {
"16 16 91 1",
" 	c None",
".	c #3269D2",
"+	c #326CD7",
"@	c #3472E5",
"#	c #5183E0",
"$	c #5B88DC",
"%	c #3472E4",
"&	c #326BD4",
"*	c #3368CA",
"=	c #326AD3",
"-	c #4980E6",
";	c #A8C2F5",
">	c #E4EBF8",
",	c #F2F5FB",
"'	c #EBF0FA",
")	c #B9CCF0",
"!	c #5789E4",
"~	c #3269CE",
"{	c #326AD2",
"]	c #6494EC",
"^	c #D4E0F4",
"/	c #E1E9F8",
"(	c #AAC4F4",
"_	c #DCE6F6",
":	c #799FE5",
"<	c #3269CF",
"[	c #C4D4F1",
"}	c #CDDAF4",
"|	c #FFFFFF",
"1	c #A5C1F4",
"2	c #CBD9F3",
"3	c #5A8AE3",
"4	c #3467C4",
"5	c #90B1EC",
"6	c #B8CCEE",
"7	c #ECF1FA",
"8	c #A0BDF2",
"9	c #B7CAEE",
"0	c #97B3E4",
"a	c #3873E0",
"b	c #A1BAE9",
"c	c #94B2EB",
"d	c #85A9EC",
"e	c #D8E4FA",
"f	c #95B4EF",
"g	c #4987F8",
"h	c #3B80FF",
"i	c #3471E3",
"j	c #4A7FE2",
"k	c #8CACE5",
"l	c #6CA0FF",
"m	c #3676EB",
"n	c #447CE5",
"o	c #6E99E8",
"p	c #9EC0FF",
"q	c #3C81FF",
"r	c #3776EB",
"s	c #3C66B6",
"t	c #3572E4",
"u	c #4686FC",
"v	c #73A4FD",
"w	c #A0C2FE",
"x	c #A0C2FF",
"y	c #CEE0FF",
"z	c #3D82FF",
"A	c #4083FF",
"B	c #4887FC",
"C	c #4888FC",
"D	c #4084FF",
"E	c #6DA0FF",
"F	c #D2E2FE",
"G	c #4486FC",
"H	c #4687FC",
"I	c #4A80E4",
"J	c #6696EE",
"K	c #DAE6FA",
"L	c #3766BE",
"M	c #346ACC",
"N	c #6C94E0",
"O	c #7EA3E6",
"P	c #E0E9F9",
"Q	c #3469CB",
"R	c #356ACC",
"S	c #658EDB",
"T	c #8DACE7",
"U	c #8EADE8",
"V	c #3569CA",
"W	c #3E71CF",
"X	c #5E88D5",
"Y	c #6E95DC",
"Z	c #3E70CF",
"                ",
"    .+@#$%&*    ",
"   =-;>,,')!~   ",
"  {]^//((//_:~  ",
" <-[}}}||1}}234 ",
" &566667||8690= ",
" abcdddde||fghi ",
" jke||||||||lhm ",
" no|||||||||pqrs",
" tuvwxxpy||yzA% ",
" &BCCCDE||FGHB= ",
" *IJJJJ||KJJJIL ",
"  MNOOOPPOOONQ  ",
"   RSTUUUUTSV   ",
"    4WXYYXZL    ",
"        s       "};
