/* XPM */
static char * home_xpm[] = {
"16 16 100 2",
"  	c None",
". 	c #3269D2",
"+ 	c #326CD7",
"@ 	c #3472E5",
"# 	c #5183E0",
"$ 	c #5B88DC",
"% 	c #3472E4",
"& 	c #326BD4",
"* 	c #3368CA",
"= 	c #326AD3",
"- 	c #4980E6",
"; 	c #A8C2F5",
"> 	c #E4EBF8",
", 	c #F2F5FB",
"' 	c #EBF0FA",
") 	c #B9CCF0",
"! 	c #5789E4",
"~ 	c #3269CE",
"{ 	c #326AD2",
"] 	c #6494EC",
"^ 	c #D4E0F4",
"/ 	c #E1E9F8",
"( 	c #A3BCEA",
"_ 	c #DCE6F6",
": 	c #799FE5",
"< 	c #3269CF",
"[ 	c #C4D4F1",
"} 	c #CDDAF4",
"| 	c #FDFDFE",
"1 	c #DDE6F7",
"2 	c #CBD9F3",
"3 	c #5A8AE3",
"4 	c #3467C4",
"5 	c #90B1EC",
"6 	c #B8CCEE",
"7 	c #D5E1F5",
"8 	c #FFFFFF",
"9 	c #FBFCFE",
"0 	c #CEDCF3",
"a 	c #B7CAEE",
"b 	c #97B3E4",
"c 	c #3873E0",
"d 	c #A1BAE9",
"e 	c #C9D8F2",
"f 	c #FCFDFE",
"g 	c #B5C8ED",
"h 	c #4987F8",
"i 	c #3B80FF",
"j 	c #3471E3",
"k 	c #4A7FE2",
"l 	c #8CACE5",
"m 	c #8FADE6",
"n 	c #BFD0F0",
"o 	c #FAFCFE",
"p 	c #79A9FF",
"q 	c #3676EB",
"r 	c #447CE5",
"s 	c #6E99E8",
"t 	c #9BB8EF",
"u 	c #F5F9FF",
"v 	c #6098FF",
"w 	c #3776EB",
"x 	c #3C66B6",
"y 	c #3572E4",
"z 	c #4686FC",
"A 	c #4E8BFC",
"B 	c #5D95FC",
"C 	c #C2D7FE",
"D 	c #9DC0FF",
"E 	c #AAC8FF",
"F 	c #5591FF",
"G 	c #4586FF",
"H 	c #4887FC",
"I 	c #4888FC",
"J 	c #BAD2FD",
"K 	c #3C81FF",
"L 	c #A1C2FD",
"M 	c #4687FC",
"N 	c #4A80E4",
"O 	c #6696EE",
"P 	c #C6D7F8",
"Q 	c #B2CAF6",
"R 	c #3766BE",
"S 	c #346ACC",
"T 	c #6C94E0",
"U 	c #7EA3E6",
"V 	c #B0C7EF",
"W 	c #CEDCF5",
"X 	c #C0D2F2",
"Y 	c #A6BFED",
"Z 	c #3469CB",
"` 	c #356ACC",
" .	c #658EDB",
"..	c #8DACE7",
"+.	c #8EADE8",
"@.	c #3569CA",
"#.	c #3E71CF",
"$.	c #5E88D5",
"%.	c #6E95DC",
"&.	c #3E70CF",
"                                ",
"        . + @ # $ % & *         ",
"      = - ; > , , ' ) ! ~       ",
"    { ] ^ / / ( ( ( / _ : ~     ",
"  < - [ } } ( / | 1 ( } 2 3 4   ",
"  & 5 6 6 ( 7 | 8 9 0 ( a b =   ",
"  c d ( ( e | 8 8 8 f g h i j   ",
"  k l m n 8 8 8 8 8 8 o p i q   ",
"  r s t f 8 8 8 8 8 8 8 u v w x ",
"  y z A B C 8 8 D D 8 E F G %   ",
"  & H I I J 8 8 K K 8 L M H =   ",
"  * N O O P 8 8 O O 8 Q O N R   ",
"    S T U V W X U U W Y T Z     ",
"      `  ...+.+.+.+... .@.      ",
"        4 #.$.%.%.$.&.R         ",
"                x               "};
