/* XPM */
/* Drawn  by Mark Donohoe for the K Desktop Environment */
/* See http://www.kde.org */
static char*blend[]={
"22 22 5 1",
"a c #000000",
"c c #ffffff",
"# c #a0a0a4",
"b c #dcdcdc",
". c None",
"......................",
"......................",
"......................",
"..##################..",
"..aaa####bbbbbbbbcc#..",
"..aa#a##b#bbbbbbcbc#..",
"..aaa####bbbbbbbbcc#..",
"..aa#a##b#bbbbbbcbc#..",
"..aaa####bbbbbbbbcc#..",
"..aa#a##b#bbbbbbcbc#..",
"..aaa####bbbbbbbbcc#..",
"..aa#a##b#bbbbbbcbc#..",
"..aaa####bbbbbbbbcc#..",
"..aa#a##b#bbbbbbcbc#..",
"..aaa####bbbbbbbbcc#..",
"..aa#a##b#bbbbbbcbc#..",
"..aaa####bbbbbbbbcc#..",
"..aaaa##b#bbbbbbcbc#..",
"..##################..",
"......................",
"......................",
"......................"};

