/* XPM */
/* Drawn  by Mark Donohoe for the K Desktop Environment */
/* See http://www.kde.org */
static char*bottom[]={
"22 22 5 1",
"# c #000000",
"b c #808080",
"c c #ffffff",
"a c #c0c0c0",
". c None",
"......................",
"......................",
"......................",
"......................",
"........#####.........",
"........#aaa#b........",
"........#aaa#b........",
"........#aaa#b........",
"........#caa#b........",
"........#caa#b........",
"........#caa#b........",
".....####caa####......",
"......#cccaaaa#b......",
".......#ccaaa#b.......",
"........#ccc#b........",
".........#c#b.........",
"..........#b..........",
"....#############.....",
"....#############.....",
"......................",
"......................",
"......................"};

