/* XPM */
/* Drawn  by Mark Donohoe for the K Desktop Environment */
/* See http://www.kde.org */
static char*circle_select[]={
"22 22 4 1",
"# c #000000",
"a c #ffffff",
"b c #dcdcdc",
". c None",
"......................",
"......................",
"......................",
"......................",
"........##aa#.........",
"......aabbbbb#a.......",
".....#abbbbbbba#......",
".....#bbbbbbbbb#......",
"....abbbbbbbbbbba.....",
"....#bbbbbbbbbbba.....",
"....#bbbbbbbbbbb#.....",
"....abbbbbbbbbbb#.....",
"....abbbbbbbbbbba.....",
".....#bbbbbbbbba......",
".....#abbbbbbb##......",
"......a#bbbbbaa.......",
"........#aa##.........",
"......................",
"......................",
"......................",
"......................",
"......................"};

