/* XPM */
/* Drawn  by Mark Donohoe for the K Desktop Environment */
/* See http://www.kde.org */
static char*dropper[]={
"22 22 4 1",
"# c #000000",
"b c #ffffff",
"a c #a0a0a4",
". c None",
"......................",
"......................",
"......................",
"..............###.....",
".............#####....",
".............#####a...",
"..........########a...",
"...........######aa...",
"..........ab###aaa....",
".........abbb##a......",
"........abbb#a#a......",
".......abbb#aa.a......",
"......abbb#aa.........",
".....abbb#aa..........",
"....abbb#aa...........",
"...abbb#aa............",
"...abb#aa.............",
"..ab##aa..............",
"...#aaa...............",
"....a.................",
"......................",
"......................"};

