/* XPM */
/* Drawn  by Mark Donohoe for the K Desktop Environment */
/* See http://www.kde.org */
static char*droplet[]={
"22 22 5 1",
"c c #000000",
"a c #ffffff",
"# c #a0a0a4",
"b c #dcdcdc",
". c None",
"......................",
"......................",
"..........#...........",
"..........#...........",
".........#a#..........",
".........#a##.........",
"........#aab#.........",
"........#aab##........",
".......#aaabb#........",
"......#aaaaabb#.......",
"......#aaaaabb##......",
".....#aaaaabbbbc......",
".....#aaaaabbbbc#.....",
".....#bbaaabbbbc#.....",
".....#bbbbbbbbbc#.....",
"......cbbbbbbbc##.....",
".......cbbbbbc##......",
"........ccccc##.......",
".........#####........",
"......................",
"......................",
"......................"};

