/* XPM */
/* Drawn  by Mark Donohoe for the K Desktop Environment */
/* See http://www.kde.org */
static char*editcopy[]={
"22 22 4 1",
"# c #000000",
"a c #ffffff",
"b c #c0c0c0",
". c None",
"......................",
"......................",
"......................",
"......................",
"......................",
"....######............",
"....#aaaa##...........",
"....#aaaa#a#..........",
"....#a##a#######......",
"....#aaaab#aaaa##.....",
"....#a#####aaaa#a#....",
"....#aaaab#a##a####...",
"....#a#####aaaaaaa#...",
"....#aaaab#a#####a#...",
"....#######aaaaaaa#...",
"..........#a#####a#...",
"..........#aaaaaaa#...",
"..........#########...",
"......................",
"......................",
"......................",
"......................"};

