/* XPM */
/* Drawn  by Mark Donohoe for the K Desktop Environment */
/* See http://www.kde.org */
static const char*editpaste[]={
"22 22 4 1",
"# c #000000",
"a c #ffffff",
"b c #c0c0c0",
". c None",
"......................",
"......................",
"......................",
"......................",
"......................",
".........####.........",
".....#####aa#####.....",
"....#bbb#a##a#bbb#....",
"....#bb#aaaaaa#bb#....",
"....#bb########bb#....",
"....#bbbbbb#######....",
"....#bbbbbb#aaaa##....",
"....#bbbbbb#aaaa#a#...",
"....#bbbbbb#a##a###...",
"....#bbbbbb#aaaaaa#...",
"....#bbbbbb#a####a#...",
".....#######aaaaaa#...",
"...........########...",
"......................",
"......................",
"......................",
"......................"};

