/* XPM */
/* Drawn  by Mark Donohoe for the K Desktop Environment */
/* See http://www.kde.org */
static char*exclamation[]={
"22 22 4 1",
"# c #000080",
"a c #ffffff",
"b c #808080",
". c None",
"......................",
"......................",
"......................",
"......................",
"......................",
"............#.........",
"...........a##........",
"..........a###b.......",
".........#####b.......",
".........####b........",
"........#####b........",
"........####b.........",
"........###b..........",
"........##b...........",
"........#b............",
".......a##............",
"......####............",
".......##b............",
"........b.............",
"......................",
"......................",
"......................"};

