/* XPM */
/* Drawn  by Mark Donohoe for the K Desktop Environment */
/* See http://www.kde.org */
static char*filemail[]={
"22 22 4 1",
"# c #000000",
"a c #ffffff",
"b c #808080",
". c None",
"......................",
"......................",
"......................",
"......................",
"......................",
"......................",
"...###############....",
"...#aaaaaaaaaaaaa#b...",
"...##aaaaaaaaaaa##b...",
"...#a#aaaaaaaaa#a#b...",
"...#aa#aaaaaaa#aa#b...",
"...#aa##aaaaa##aa#b...",
"...#aa#a#aaa#a#aa#b...",
"...#a#aaa###aaa#a#b...",
"...##aaaaaaaaaaa##b...",
"...###############b...",
"....bbbbbbbbbbbbbbb...",
"......................",
"......................",
"......................",
"......................",
"......................"};

