/* XPM */
/* Drawn  by Mark Donohoe for the K Desktop Environment */
/* See http://www.kde.org */
static char*filefloppy[]={
"22 22 6 1",
"# c #000000",
"b c #ffffff",
"c c #c0c0c0",
"d c #808080",
"a c #c0c0c0",
". c None",
"......................",
"......................",
"......................",
"......................",
"....#############.....",
"....#abbbbbbbbcc#d....",
"....#ab#####bbcc#d....",
"....#abbbbbbbbcc#d....",
"....#ab###bbbbcc#d....",
"....#abbbbbbbbcc#d....",
"....#abbbbbbbbcc#d....",
"....#acccccccccc#d....",
"....#adddddddddd#d....",
"....#adddddddddd#d....",
"....#addaaaaaddc#d....",
"....#addaaddaddc#d....",
"....#addaaddaddc#d....",
"....#############d....",
".....ddddddddddddd....",
"......................",
"......................",
"......................"};

