/* XPM */
/* Drawn  by Mark Donohoe for the K Desktop Environment */
/* See http://www.kde.org */
static char*flag[]={
"22 22 5 1",
"# c #808080",
"a c #000000",
"b c #ff0000",
"c c #c0c0c0",
". c None",
"......................",
"......................",
"...........#..........",
"...........#..........",
"...........a#.........",
"...........a#.........",
"..........bca#........",
"..........bca#........",
".........bbcca#.......",
".......bbbbcca#.......",
"......bbbbbbbba#......",
"......bbbbbb..a#......",
".....bbbb......a#.....",
"...............a#.....",
"................a#....",
"................a#....",
".................a#...",
".................a#...",
"......................",
"......................",
"......................",
"......................"};

