/* XPM */
static char *help[] = {
/* width height num_colors chars_per_pixel */
"    22    22        3            1",
/* colors */
". c #808080",
"# c #000080",
"a c none",
/* pixels */
"aaaaaaaaaaaaaaaaaaaaaa",
"aaaaaaaaaaaaaaaaaaaaaa",
"aaaaaaaaaaaaaaaaaaaaaa",
"aaaaaaaaaaaaaaaaaaaaaa",
"aaaaaaaaaaaaaaaaaaaaaa",
"aaaaaaaaa#####.aaaaaaa",
"aaaaaaaa##aa.##.aaaaaa",
"aaaaaaa##.aaa###aaaaaa",
"aaaaaaa##.aaa###aaaaaa",
"aaaaaaa.##aa.##.aaaaaa",
"aaaaaaaaaaaa##.aaaaaaa",
"aaaaaaaaaaa##aaaaaaaaa",
"aaaaaaaaaa##.aaaaaaaaa",
"aaaaaaaaaa##.aaaaaaaaa",
"aaaaaaaaaaaaaaaaaaaaaa",
"aaaaaaaaaa###aaaaaaaaa",
"aaaaaaaaaa###aaaaaaaaa",
"aaaaaaaaaaaaaaaaaaaaaa",
"aaaaaaaaaaaaaaaaaaaaaa",
"aaaaaaaaaaaaaaaaaaaaaa",
"aaaaaaaaaaaaaaaaaaaaaa",
"aaaaaaaaaaaaaaaaaaaaaa"
};
