/* XPM */
static char*image[]={
"20 20 15 1",
"k c #808080",
"m c #f9f9be",
"j c #008000",
"l c #a0a0a0",
"h c #c3c3c3",
"i c #800000",
"e c #00ff00",
"c c #c0c0ff",
"a c #ffc0c0",
"d c #c00000",
"b c #c0ffc0",
". c None",
"# c #ffffc0",
"g c #0000c0",
"f c #0000ff",
"....................",
"....................",
"....................",
"......##########....",
"....#############...",
"...###############..",
"..#####aa#bb#cc###..",
"..#####dddeeffgh##..",
"..####iiidjefffk###.",
"..####akidhejffk###.",
"..#####kldhejffk###.",
"..#####kldhehhlk###.",
"..#####llhhhhhll###.",
"..#####llhh.hhll###.",
"..#####lllhhhhll###.",
"..######llhhhhl####.",
"...########mm#####..",
".....#############..",
".......##########...",
"...................."};
