/* XPM */
static char*image[]={
"20 20 122 2",
".g c #9b9b9b",
".T c #0505e0",
"#z c #525232",
"#L c #272727",
".v c #fcfcfa",
".M c #a3a3a1",
".A c #909074",
"#r c #c8c828",
"#Y c #f9f9be",
".2 c #ce0000",
".Q c #465700",
".p c #c3a6a6",
"#. c #c3c393",
".1 c #9b5b5b",
"#W c #bfc9a0",
"#u c #b7bf78",
"#R c #c3c3a2",
"#m c #98989b",
"#X c #a8a889",
".Z c #c3c3ab",
".0 c #2c2c2c",
".C c #ff0c0c",
".6 c #373767",
".d c #c3c3c3",
"#2 c #b8b88e",
".4 c #507052",
".J c #b0b0b0",
".F c #0cbc0c",
"#h c #9cab3f",
"#0 c #a1ab81",
".q c #ffeeee",
"#y c #c0c0b0",
"#n c #676767",
".k c #ebebd3",
".o c #a09c88",
".3 c #28ba28",
"#A c #90935d",
"#K c #39393b",
"#M c #878766",
"#C c #414139",
".7 c #f3f3f3",
"#k c #975b5b",
".n c #fbfbf1",
"#Z c #c0d090",
"#g c #656f1c",
"#e c #cdd21c",
"#w c #8a4a4b",
".5 c #1414d4",
".G c #6080b0",
"#j c #dddda2",
"#s c #c4c400",
"#d c #494967",
".r c #eefcd5",
"#I c #3e3e39",
".U c #0e0e80",
".u c #e8e8ff",
"#T c #ededb5",
"#N c #ededb7",
".s c #e2f8be",
".H c #2424ff",
".8 c #d7d763",
".O c #d91e1e",
"#f c #f7f738",
".Y c #9c9c75",
"#i c #e8eda8",
"#B c #dfe1a8",
"#E c #949497",
".I c #7474c4",
".E c #3cd43c",
".W c #cfcf9c",
".S c #143474",
".c c #9c9c9c",
"#v c #7b6b6b",
"#G c #bfbfba",
"#c c #46468d",
".y c #bfbfbf",
"#l c #aa0000",
"#t c #749400",
".R c #00b000",
".z c #cfcfb0",
".t c #f7fbf3",
"#3 c #303030",
"#1 c #dfdfb0",
".m c #d7d7bf",
"#J c #383839",
".a c #cfcfcf",
"#a c #b00000",
"#H c #63634b",
"## c #dfdfc0",
".P c #ff0000",
".f c #d7d7d7",
"#q c #606020",
".# c #dfdfdf",
"Qt c None",
".X c #ffffc0",
"#U c #ffffc6",
"#V c #ffffc9",
"#P c #ffffcb",
"#b c #40a240",
".K c #ffffd4",
".D c #ff3c3c",
".N c #372727",
"#O c #ffffe1",
"#F c #60605a",
".e c #ffffe7",
".B c #803030",
".l c #606060",
".V c #f7f7f7",
".x c #ffffec",
".h c #fffff0",
".j c #fffff3",
"#S c #aeae8f",
"#Q c #fffff6",
"#p c #fffff7",
".w c #fffffa",
"#x c #fffffb",
".i c #fffffc",
"#o c #fffffd",
".b c #ffffff",
".9 c #9b9b75",
".L c #9b9b80",
"#D c #787878",
"QtQtQtQtQtQtQtQtQtQtQtQtQtQtQtQtQtQtQtQt",
"QtQtQtQtQtQtQtQtQtQtQtQtQtQtQtQtQtQtQtQt",
"QtQtQtQtQtQtQtQtQtQtQtQtQtQtQtQtQtQtQtQt",
"QtQtQtQtQtQtQtQtQtQtQtQt.#QtQtQtQtQtQtQt",
"QtQtQtQtQtQtQt.a.b.c.d.e.b.b.dQtQtQtQtQt",
"QtQtQtQtQtQt.f.b.g.d.h.i.j.e.b.b.k.lQtQt",
"QtQtQtQtQt.m.n.o.p.q.r.s.t.u.v.b.w.x.yQt",
"QtQtQtQt.z.j.A.B.C.D.E.F.G.H.I.J.b.bQtQt",
"QtQtQtQt.K.L.M.N.O.P.Q.R.S.T.U.l.VQtQtQt",
"QtQt.W.X.Y.Z.#.0.1.2Qt.3.4.5.6.l.7QtQtQt",
"Qt.8.X.9#..X##.0.1#aQt#b.4#c#d.l.i.j.fQt",
"Qt#e#f#g#h#i#j.0#k#lQtQtQt#m#n.l#o#p.yQt",
"QtQt#q#r#s#t#u.0#v#wQtQtQt#m#n.l#x#yQtQt",
"QtQtQtQt#z#A#B#C#D#EQtQtQt#m#n#F#GQtQtQt",
"QtQtQtQt#H.X.X.W#I#JQtQtQt#K#L#MQtQtQtQt",
"QtQtQtQt#N.X.X.X.X.X#O#P.e#Q#RQtQtQtQtQt",
"QtQtQtQtQt#S#T.X.X.X#U#V.e#WQtQtQtQtQtQt",
"QtQtQtQtQtQtQt#X#Y.X.X.X#ZQtQtQtQtQtQtQt",
"QtQtQtQtQtQtQtQtQt#0#1#2QtQtQtQtQtQtQtQt",
"QtQtQtQtQtQtQtQtQtQt#3QtQtQtQtQtQtQtQtQt"};
