/* XPM */
/* Drawn  by Jonathan Buzzard for the K Desktop Environment */
/* See http://www.kde.org */
static char*kde2[]={
"22 22 8 1",
"a c #ffffff",
"c c #c0c0c0",
"# c #a0a0a4",
"d c #808080",
"e c #303030",
"b c #303030",
"f c #000000",
". c None",
"......................",
"..........###.........",
".....##..#aaa#........",
"....#aa.##aaa#.###....",
"...#aaaaaaaaaa#aaa#...",
"...bbaaaaaaaaaaaaa#...",
".####caaaaaaaaaaa#b...",
"#caaaaaaacdbbaaaa####.",
"#aaaaaaacdeffbaaaaaaa#",
"###caaaacedcbbaaaaaaa#",
"bbb#aaaaaddddcaaaa####",
"bbb#aaaaaaaaaaaaa#eeee",
"#b#aaaaaaaaaaaaaa#eeee",
".#caaaccaaaaaaaaaa#ee.",
".b#ac#e#aaaa###aaac#..",
".bb#bbe#aaacbbb#aa#b..",
".bbbbbb#aaa#bbbb##bd..",
"..bbbb.#cac#..bbbbdd..",
"...ee..b###e...bbde...",
".......bbbbe....ee....",
".......ebbbe..........",
"........bbb..........."};

