/* XPM */
/* Drawn  by Jonathan Buzzard for the K Desktop Environment */
/* See http://www.kde.org */
static char*kde4[]={
"22 22 8 1",
"a c #ffffff",
"c c #c0c0c0",
"# c #a0a0a4",
"d c #808080",
"e c #303030",
"b c #303030",
"f c #000000",
". c None",
"......................",
"............##........",
"......##...#aa#.......",
".....#aa#..#aa#.......",
".....#aaa##aaa#..###..",
".....b#aaaaaaaa##aaa#.",
"..####aaaaaaaaaaaaaa#.",
".#aaaaaaacdbbaaaaa##b.",
".b#aaaaacdeffbaaa#bbb.",
".bb#aaaacedcbbaaaa###.",
".bb#aaaaaddddcaaaaaaa#",
"..#aaaaaaaaaaaaaaaaaa#",
".#aaaaaaaaaaaaaaa####b",
".#aa####aaaaaaaa#bbbbb",
".##bbbb#aaaa#aaaa#bbbb",
".bbbb##aaaa#b#aaaa#bb.",
".bbbb#aaaa#bbb#aa#b...",
".ebb.###aabbbbb##bd...",
".....bbb##bb.bbbbdd...",
".....bbbbbb...bbbdb...",
".....bbbbb.....bbb....",
"......eee............."};

