/* XPM */
/* Drawn  by Jonathan Buzzard for the K Desktop Environment */
/* See http://www.kde.org */
static char*kde5[]={
"22 22 8 1",
"a c #ffffff",
"c c #c0c0c0",
"# c #a0a0a4",
"d c #808080",
"e c #303030",
"b c #303030",
"f c #000000",
". c None",
"......................",
"......................",
"......###...###.......",
".....#aaa###aaa#......",
"..##.#aaaaaaaaa#.##...",
".#aa##aaaaaaaaaa#aa#..",
".#aaaaaaaaaaaaaaaaa#..",
".b#aaaaaacdbbaaaaa#b..",
".bb#aaaacdeffbaaa#bb..",
".bb#aaaacedcbbaaaa#b..",
"..#aaaaaaddddcaaaaa##.",
".#aaaaaaaaaaaaaaaaaaa#",
"#aaaaaaaaaaaaaaaaaaa#b",
"#aac##aaaaaaaaaa####bd",
"b##bbb#aaaaaaaaa#bbbdb",
"bbbbb##aaaacaaaa#bbbb.",
"bbbbb#aaaa###aaaa#bb..",
".bb..##aa#bbb#aa#b....",
".....bb##bbbbb##bd....",
".....bbbbbb..bbbdb....",
".....bbbbb...bbbb.....",
".......bb.....bb......"};

