/* XPM */
/* Drawn  by Jonathan Buzzard for the K Desktop Environment */
/* See http://www.kde.org */
static char*kde6[]={
"22 22 8 1",
"a c #ffffff",
"c c #c0c0c0",
"# c #a0a0a4",
"d c #808080",
"e c #303030",
"b c #303030",
"f c #000000",
". c None",
"......................",
"........##............",
".......#aa#...##......",
".......#aa#..#aa#.....",
"...##.#aaaa##aaa#.##..",
"..#aa#aaaaaaaaa###aa#.",
"..#aaaaaaaaaaaaaaaaa#.",
"..b#aaaaacdbbaaaaa###.",
"..bb#aaacdeffbaaa#bbb.",
".###aaaacedcbbaaaa#bb.",
"#aaaaaaaaddddcaaaaa##.",
"#aaaaaaaaaaaaaaaaaaaa#",
"######aaaaaaaaaaa##aa#",
"bbbbb#aaaaaaaaaa#bb##b",
"bbbbb#aaa#aaaaa#bbbbbb",
".bbb#aaa#b##aaa#bbbbbb",
"....##aa#bbb#aaa#..bb.",
"....bb##bbbbb#a##.....",
"....bbbbb.bbb##bb.....",
"....bbbbb...bbbdd.....",
".....ebb....ebddd.....",
".............bbb......"};

