/* XPM */
/* Drawn  by Jonathan Buzzard for the K Desktop Environment */
/* See http://www.kde.org */
static char*kde7[]={
"22 22 8 1",
"a c #ffffff",
"b c #c0c0c0",
"# c #a0a0a4",
"d c #808080",
"e c #303030",
"c c #303030",
"f c #000000",
". c None",
"......................",
"........##....##......",
".......#aa#..#aa#.....",
"...##..#aaa##aaa#.....",
"..#aa##baaaaaaa#c.....",
"..#aaaaaaaaaaaa#c.....",
"..c#aaaaaaaaaaaa####..",
"..cc#aaaabdccaaaaaaa#.",
".###aaaabdeffcaaaaa#c.",
"#aaaaaaabedbccaaaa#cc.",
"#aaaaaaaaddddbaaaa#cc.",
"####aaaaaaaaaaaaaaa#..",
"cccc#aaaaaaaaaaaaaaa#.",
"ccccc#aaaaaaaaa###aa#.",
".ccc#aaaa#aaaa#ccc##c.",
"...#aaaa#c#aaaa#ccccd.",
"...c#aa#ccc#aaa#ccddc.",
"...cc##ccccc#a##..cc..",
"...cccccc.cc##cc......",
"....cccc...ccccd......",
".....ee.....cddc......",
".............ce......."};

