/* XPM */
/* Drawn  by Jonathan Buzzard for the K Desktop Environment */
/* See http://www.kde.org */
static char*kde8[]={
"22 22 8 1",
"a c #ffffff",
"c c #c0c0c0",
"# c #a0a0a4",
"d c #808080",
"e c #303030",
"b c #303030",
"f c #000000",
". c None",
"......................",
"........###...........",
".......#aaa#..###.....",
"...##..#aaa###aaa#....",
"..#aa###aaaaaaaaa#....",
"..#aaaaaaaaaaaaa#####.",
"..b#aaaaaaaaaaaaa#aaa#",
"..bb#aaaacdbbaaaaaaaa#",
".####aaacdeffbaaaaa##b",
"#aaaaaaacedcbbaaaa#bbb",
"#aaaaaaaaddddcaaaa#bbb",
"b###aaaaaaaaaaaaaaa#b.",
"bbbb#aaaaaaaaaaaaaaa#.",
"bbbb#aaaaaaaaaa###aa#.",
".bb#aaaa##aaaa#bbb##b.",
"...#aaa#bb#aaa#bbbbbd.",
"...b#a#bbb#aaa#bbbddb.",
"...bb#bbb.#aaa#...bb..",
"...bbbbb..b###b.......",
"....bbb...bbbbd.......",
"..........ebddb.......",
"...........bbb........"};

