/* XPM */
/* Drawn  by Jonathan Buzzard for the K Desktop Environment */
/* See http://www.kde.org */
static char*kde9[]={
"22 22 8 1",
"a c #ffffff",
"b c #c0c0c0",
"# c #a0a0a4",
"d c #808080",
"e c #303030",
"c c #303030",
"f c #000000",
". c None",
"......................",
".........###..........",
"........#aaa#..##.....",
"....###.#aaab##aa#....",
"...#aaa#aaaaaaaaa#....",
"...#aaaaaaaaaaaa#.....",
"...c#aaaaaaaaaaab####.",
".####aaaabdccaaaaaaaa#",
"#aaaaaaabdeffcaaaaaaa#",
"#aaaaaaabedbccaaaaa##c",
"#####aaaaddddbaaaa#ccc",
"cccc#aaaaaaaaaaaaa##cc",
"cccc#aaaaaaaaaaaaaaa#.",
".cc#aaaaaaaaaaa#aaaa#.",
"..#aaaa###aaaa#c##a#c.",
"..c#aa#cc#aaa#cccc#cd.",
"..cc##ccc#aaa#cccccdc.",
"..ccccccc#aaa#c.cccc..",
"...cccc..c###c...ee...",
"....ee...ccccd........",
".........ccddc........",
"..........ccc........."};

