/* XPM */
/* Drawn  by Mark Donohoe for the K Desktop Environment */
/* See http://www.kde.org */
static char*knife[]={
"22 22 4 1",
"a c #000000",
"b c #ffffff",
"# c #a0a0a4",
". c None",
"......................",
"......................",
"......................",
"................#a#...",
"...............#aaa...",
"..............#aaa#...",
".............#aaa##...",
"............#aaa##....",
"...........#aaa##.....",
"..........#aaa##......",
".........#aaa##.......",
"........#aaa##........",
".......#aaa##.........",
"......#aaa##..........",
".....#abba#...........",
"....#abba#............",
"...##bba#.............",
"...aaaa#..............",
"......................",
"......................",
"......................",
"......................"};

