/* XPM */
/* Drawn  by Mark Donohoe for the K Desktop Environment */
/* See http://www.kde.org */
static char*lassoo[]={
"22 22 4 1",
"# c #000000",
"b c #dcdcdc",
"a c #a0a0a4",
". c None",
"......................",
"......................",
"......................",
"......................",
"......................",
".........#######......",
"......###aaaaaaa##....",
".....#aaaabbbbbbba#...",
"....#abbbbbbbbbbbb#a..",
"...#abbbbbbbbbbbbb#a..",
"...#abbbbbbbbbbb##aa..",
"...#abbbbbbbb###aa....",
"....###bbb###aaa......",
"...##bb###a...........",
"...#b#b#a.............",
"....###...............",
"......#...............",
"......#...............",
".....#................",
"......................",
"......................",
"......................"};

