/* XPM */
/* Drawn  by Mark Donohoe for the K Desktop Environment */
/* See http://www.kde.org */
static char*next[]={
"22 22 5 1",
"# c #000000",
"a c #ffffff",
"b c #808080",
"c c #c0c0c0",
". c None",
"......................",
"......................",
"......................",
"......................",
"......................",
"....#......#######....",
"...#a#.#b..#######....",
"..#aca#a#.............",
".#acccaa#..########...",
"..#cccca#.............",
"...#ccca#..#####......",
"..#ccccc#.............",
"..b######..########...",
"...........########...",
"......................",
"...........####.......",
"......................",
"...........######.....",
"......................",
"......................",
"......................",
"......................"};

