/* XPM */
/* Drawn  by Mark Donohoe for the K Desktop Environment */
/* See http://www.kde.org */
static char*paintbucket[]={
"22 22 5 1",
"b c #000000",
"c c #ffffff",
"# c #a0a0a4",
"a c #dcdcdc",
". c None",
"......................",
"......................",
".........##...........",
"........####..........",
".......##aa##.........",
".......##ab##.........",
".......##bc##.........",
".......bbcc##bb.......",
".......bcca##abbb.....",
"......bccacb#aabbb....",
".....bccacbabaa#bbb...",
"....bccacaabaa##bbb#..",
"...bccacaaaaa##bbbb#..",
"...bcacaaaaa##b#bbb#..",
"....bcaaaaa##b##bbb#..",
".....bcaaa##b##.bbb#..",
"......baa##b##..bb##..",
".......b##b##...b##...",
"........bb##.....#....",
".........##...........",
"......................",
"......................"};

