/* XPM */
/* Drawn  by Mark Donohoe for the K Desktop Environment */
/* See http://www.kde.org */
static char*print_preview[]={
"22 22 7 1",
"# c #000000",
"a c #ffffff",
"c c #dcdcdc",
"d c #808080",
"e c #a0a0a4",
"b c #c0c0c0",
". c None",
"......................",
"......................",
"......................",
".....#######..........",
".....#aaaabc#.........",
".....#aaaabac#........",
".....#aaaabaac#.......",
".....#aaaab####.......",
".....#aaaaabbb#.......",
".....#aaaaa####.......",
".....#aaaa#dbbd#......",
".....#aaa#deebdd#.....",
".....#aaa#bebbdb#.....",
".....#aaa#bbbbdb#.....",
".....#aaa#dbbedd#.....",
".....######dbbd#d.....",
"...........####d##....",
"................###...",
".................##...",
"......................",
"......................",
"......................"};

