/* XPM */
/* Drawn  by Mark Donohoe for the K Desktop Environment */
/* See http://www.kde.org */
static char*send[]={
"22 22 6 1",
"# c #000000",
"c c #c0c0c0",
"a c #ffffff",
"d c #808080",
"b c #dcdcdc",
". c None",
"......................",
"......................",
"......................",
"......................",
"......................",
"......................",
"..#.#.###############.",
"......#aaaaaaaaaaaaa#.",
".#.#.##baaaaaaaaac##d.",
".....#a#aaaaaaaad#a#d.",
"..#.#aa#aaaaaab#aa#d..",
"....#aa#baaaad#baa#d..",
".#.#aa#a#aaa#a#aa#d...",
"...#a#aaa###aaa#a#d...",
"..##aaaaaaaaaaa##d....",
"..###############d....",
"...ddddddddddddddd....",
"......................",
"......................",
"......................",
"......................",
"......................"};

