/* XPM */
/* Drawn  by Mark Donohoe for the K Desktop Environment */
/* See http://www.kde.org */
static char*smart_select[]={
"22 21 5 1",
"b c #000000",
"# c #ffffff",
"c c #a0a0a4",
"a c #dcdcdc",
". c None",
"......................",
"......................",
"......#...............",
"....#aba#.............",
"....b#a#b.............",
"...#ab#ba#............",
"...ba#b#ab............",
"....#bab#.............",
"....ba#ab.c...........",
"......b..cac..........",
"........ca#ac.........",
".........ca#ac........",
"..........cabbc.......",
"...........cbbbc......",
"............cbbbc.....",
".............cbbbc....",
"..............cbbbc...",
"...............cbbbc..",
"................cbc...",
".................c....",
"......................"};

