/* XPM */
static char * spellcheck_xpm[] = {
"22 22 3 1",
".	c #000000",
"X	c #FF0000",
" 	c None",
"                      ",
"                      ",
"                      ",
"                      ",
"                      ",
"                      ",
"   ...  ....   ....   ",
"  .. .. ..... ..XX.   ",
"  .   . .  .. .XX     ",
"  ..... ....  .XX     ",
"  ..... ....  XX      ",
"  .   . .  .. XX...   ",
"  .   . .....XX....   ",
"  .   . .X.. XX       ",
"         XX XX        ",
"         XX XX        ",
"          XXX         ",
"           X          ",
"                      ",
"                      ",
"                      ",
"                      "};
