/* XPM */
/* Drawn  by Mark Donohoe for the K Desktop Environment */
/* See http://www.kde.org */
static char*text[]={
"22 22 3 1",
"# c #000000",
"a c #a0a0a4",
". c None",
"......................",
"......................",
"......................",
"......................",
"......................",
".....###########......",
".....##aa###aa##a.....",
".....#aa.###a..#a.....",
"......a..###a...a.....",
"........a##a..........",
"........a##a..........",
"........a##a..........",
"........###a..........",
"........##a...........",
".......a##a...........",
".......a##a...........",
".......###a...........",
"......#####...........",
".......aaaaa..........",
"......................",
"......................",
"......................"};

