/* XPM */
/* Drawn  by Mark Donohoe for the K Desktop Environment */
/* See http://www.kde.org */
static char*tick[]={
"22 22 5 1",
"# c #000000",
"a c #808080",
"b c #ffffff",
"c c #c0c0c0",
". c None",
"......................",
"......................",
"......................",
"......................",
"......................",
"................#a#...",
"...............aba#...",
"..............aba#....",
".............aba#.....",
".......a....aba#......",
"......aba..ab##.......",
".....abcca#bca#.......",
".....#acccbc##........",
".....##acccca#........",
"......##acca#.........",
".......##aca#.........",
"........##a#..........",
".........###..........",
"..........#...........",
"......................",
"......................",
"......................"};

