/* XPM */
/* Drawn  by Mark Donohoe for the K Desktop Environment */
/* See http://www.kde.org */
static char*transform[]={
"22 22 4 1",
"# c #000000",
"a c #a0a0a4",
"b c #dcdcdc",
". c None",
"......................",
"......................",
"......................",
"...#######............",
"...#aaaaa#a#a#a#......",
"...#aaaaa#bbbbba......",
"...#aabbbb##########..",
"...#aabbbabbbbbabbb#a.",
"...###baaabbbbb#bbb#a.",
"....ab#bbbbbbbbabbb#a.",
"....#b#bbbbbbbbabbb#a.",
"....ab#bbbbbbb#bbbb#a.",
"....#a#a#a#a#ab#b#b#a.",
"......#bbbbbbbbb##b#a.",
"......#bbbbbbbb###b#a.",
"......#bbbbbbbbbbbb#a.",
"......##############a.",
".......aaaaaaaaaaaaaa.",
"......................",
"......................",
"......................",
"......................"};

