/* XPM */
static char*unknown[]={
"22 22 4 1",
"a c #808080",
"# c #000080",
"b c #ff0000",
". c None",
"......................",
"......................",
"......................",
"......................",
"......................",
"...#####abbbbba.......",
"..##..a###..abba......",
"..##...###...bbb......",
"..##...###...bbb......",
"...#..a##b..abba......",
"......##a...bba.......",
".....##....bb.........",
"....##a...bba.........",
"....##a...bba.........",
"......................",
"....###...bbb.........",
"....###...bbb.........",
"......................",
"......................",
"......................",
"......................",
"......................"};
