/* XPM */
static char *error [] = {
"48 48 6 1",
" 	c None",
"X	c white",
":	c black",
".	c black",
"#	c black",
"o	c black",
"               .................                ",
"              ...................               ",
"             ...XoXoXoXoXoXoXoXo##              ",
"            ...XoXoXoXoXoXoXoXoXo##             ",
"           ...XoXoXoXoXoXoXoXoXoXo##            ",
"          ...XoXoXoXoXoXoXoXoXoXoXo##           ",
"         ...XoXoXoXoXoXoXoXoXoXoXoXo##          ",
"        ...XoXoXoX############oXoXoXo##         ",
"       ...XoXoXoX#############.oXoXoXo##        ",
"      ...XoXoXoX###           ..oXoXoXo##       ",
"     ...XoXoXoX###             ..oXoXoXo##      ",
"    ...XoXoXoXo##               ..oXoXoXo##     ",
"   ...XoXoXoXoXo##               ..oXoXoXo##    ",
"  ...XoXoXoXoXoXo##               ..oXoXoXo##   ",
" ...XoXoXoXoXoXoXo##               ..oXoXoXo##  ",
" ..XoXoXoX#XoXoXoXo##               ..oXoXoXo## ",
" ..oXoXoX##..oXoXoXo##               ..oXoXoX## ",
" ..XoXoX##  ..oXoXoXo##               ..oXoXo## ",
" ..oXoXo##   ..oXoXoXo##              ..XoXoX## ",
" ..XoXoX##    ..oXoXoXo##             ..oXoXo## ",
" ..oXoXo##     ..oXoXoXo##            ..XoXoX## ",
" ..XoXoX##      ..oXoXoXo##           ..oXoXo## ",
" ..oXoXo##       ..oXoXoXo##          ..XoXoX## ",
" ..XoXoX##        ..oXoXoXo##         ..oXoXo## ",
" ..oXoXo##         ..oXoXoXo##        ..XoXoX## ",
" ..XoXoX##          ..oXoXoXo##       ..oXoXo## ",
" ..oXoXo##           ..oXoXoXo##      ..XoXoX## ",
" ..XoXoX##            ..oXoXoXo##     ..oXoXo## ",
" ..oXoXo##             ..oXoXoXo##    ..XoXoX## ",
" ..XoXoX##              ..oXoXoXo##   ..oXoXo## ",
" ..oXoXo##               ..oXoXoXo##  ..XoXoX## ",
" ..XoXoXo##               ..oXoXoXo##..XoXoXo## ",
" ..oXoXoXo##               ..oXoXoXoX#XoXoXoX## ",
"  ..oXoXoXo##               ..oXoXoXoXoXoXoX### ",
"   ..oXoXoXo##               ..oXoXoXoXoXoX###  ",
"    ..oXoXoXo##               ..oXoXoXoXoX###   ",
"     ..oXoXoXo##               ..oXoXoXoX###    ",
"      ..oXoXoXo##             ...XoXoXoX###     ",
"       ..oXoXoXo##           ...XoXoXoX###      ",
"        ..oXoXoXo##............XoXoXoX###       ",
"         ..oXoXoXo............XoXoXoX###        ",
"          ..oXoXoXoXoXoXoXoXoXoXoXoX###         ",
"           ..oXoXoXoXoXoXoXoXoXoXoX###          ",
"            ..oXoXoXoXoXoXoXoXoXoX###           ",
"             ..oXoXoXoXoXoXoXoXoX###            ",
"              ..oXoXoXoXoXoXoXoX###             ",
"               ..#################              ",
"                .################               "
};

