/* XPM */
static char *exclamation[] = {
"16 48 4 1",
" 	c None",
"X	c darkgreen",
".	c white",
"#	c black",
"      ....      ",
"    ..XXXX##    ",
"   ..XXXXXX##   ",
"  ..XXXXXXXX##  ",
"  ..XXXXXXXX##  ",
" ..XXXXXXXXXX## ",
" ..XXXXXXXXXX## ",
"..XXXXXXXXXXXX##",
"..XXXXXXXXXXXX##",
"..XXXXXXXXXXXX##",
"..XXXXXXXXXXXX##",
"..XXXXXXXXXXXX##",
"..XXXXXXXXXXXX##",
"..XXXXXXXXXXXX##",
"..XXXXXXXXXXXX##",
" ..XXXXXXXXXX## ",
" ..XXXXXXXXXX## ",
" ..XXXXXXXXXX## ",
"  ..XXXXXXXX##  ",
"  ..XXXXXXXX##  ",
"  ..XXXXXXXX##  ",
"  ..XXXXXXXX##  ",
"   ..XXXXXX##   ",
"   ..XXXXXX##   ",
"   ..XXXXXX##   ",
"   ..XXXXXX##   ",
"   ..XXXXXX##   ",
"   ..XXXXXX##   ",
"   ..XXXXXX##   ",
"   ..XXXXXX##   ",
"   ..XXXXXX##   ",
"   ..XXXXXX##   ",
"    .#######    ",
"                ",
"                ",
"                ",
"      ....      ",
"    ..XXXX##    ",
"   ..XXXXXX##   ",
"   ..XXXXXX##   ",
"  ..XXXXXXXX##  ",
"  ..XXXXXXXX##  ",
"  ..XXXXXXXX##  ",
"  ..XXXXXXXX##  ",
"   ..XXXXXX##   ",
"   ..XXXXXX##   ",
"    ..XXXX##    ",
"      ####      "
};

