/* XPM */
static char *magick[] = {
/* columns rows colors chars-per-pixel */
"51 50 5 1",
"  c #000000",
". c #a0a0a4",
"X c #c0c0c0",
"o c #ffffff",
"O c None",
/* pixels */
"OOOOOOOOOOOOOOOOOOOOOOOOOOOOOOOOOOOOOOOOOOOOOOOOOOO",
"OOOOOOOOOOOOOOOOOOOOOOOOOOOOOOOOOOOOOOOOOOOOOOOOOOO",
"OOOOOOOOOOOOOOOOOOOOOOOOOOOOOOOOOOOOOOOOOOOOOOOOOOO",
"OOOOOOOOOOOOOOOOOOOOOOOOOOOOOOOOOOOOOOOOOOOOOOOOOOO",
"OOOOOOOOOOOOOOOOOOOOOOOOOOOOOOOOOOOOOOOOOOOOOOOOOOO",
"OOOOOOOOOOOOOOOOOOOOOOOOOOOOOOOOOOOOOOOOOOOOOOOOOOO",
"OOOOOOOOOOOOOOOOOOOOOOOOOOOOOOOOOOOOOOOOOOOOOOOOOOO",
"OOOOOOOOOOOOOOOOOOOOOO   OOOOOOOOOOOOOOOOOOOOOOOOOO",
"OOOOOOOOOOOOOOOOOOOOO ooo OOOOOOOOOOOOOOOOOOOOOOOOO",
"OOOOOOOOOOOOOOOOOOOO ooooo .OOOOOOOOOOOOOOOOOOOOOOO",
"OOOOOOOOOOOOOOOOOOOO ooooo ..OOOOOOOOOOOOOOOOOOOOOO",
"OOOOOOOOOOOOOOOOOOO ooooooo ..OOOOOOOOOOOOOOOOOOOOO",
"OOOOOOOOOOOOOOOOOOO ooooooo ..OOOOOOOOOOOOOOOOOOOOO",
"OOOOOOOOOOOOOOOOOO ooooooooo ..OOOOOOOOOOOOOOOOOOOO",
"OOOOOOOOOOOOOOOOOO ooooooooo ..OOOOOOOOOOOOOOOOOOOO",
"OOOOOOOOOOOOOOOOO ooooooooooo ..OOOOOOOOOOOOOOOOOOO",
"OOOOOOOOOOOOOOOOO oooo   oooo ..OOOOOOOOOOOOOOOOOOO",
"OOOOOOOOOOOOOOOO oooo     oooo ..OOOOOOOOOOOOOOOOOO",
"OOOOOOOOOOOOOOOO oooo     oooo ..OOOOOOOOOOOOOOOOOO",
"OOOOOOOOOOOOOOO ooooo     ooooo ..OOOOOOOOOOOOOOOOO",
"OOOOOOOOOOOOOOO ooooo     ooooo ..OOOOOOOOOOOOOOOOO",
"OOOOOOOOOOOOOO oooooo     oooooo ..OOOOOOOOOOOOOOOO",
"OOOOOOOOOOOOOO oooooo     oooooo ..OOOOOOOOOOOOOOOO",
"OOOOOOOOOOOOO oooooooo   oooooooo ..OOOOOOOOOOOOOOO",
"OOOOOOOOOOOOO oooooooo   oooooooo ..OOOOOOOOOOOOOOO",
"OOOOOOOOOOOO ooooooooo   ooooooooo ..OOOOOOOOOOOOOO",
"OOOOOOOOOOOO oooooooooo oooooooooo ..OOOOOOOOOOOOOO",
"OOOOOOOOOOO ooooooooooo ooooooooooo ..OOOOOOOOOOOOO",
"OOOOOOOOOOO ooooooooooooooooooooooo ..OOOOOOOOOOOOO",
"OOOOOOOOOO oooooooooooo  ooooooooooo ..OOOOOOOOOOOO",
"OOOOOOOOOO ooooooooooo    oooooooooo ..OOOOOOOOOOOO",
"OOOOOOOOO oooooooooooo    ooooooooooo ..OOOOOOOOOOO",
"OOOOOOOOO ooooooooooooo  oooooooooooo ..OOOOOOOOOOO",
"OOOOOOOOO ooooooooooooooooooooooooooo ...OOOOOOOOOO",
"OOOOOOOOO ooooooooooooooooooooooooooo ...OOOOOOOOOO",
"OOOOOOOOOO ooooooooooooooooooooooooo ....OOOOOOOOOO",
"OOOOOOOOOOO                         .....OOOOOOOOOO",
"OOOOOOOOOOOOO...........................OOOOOOOOOOO",
"OOOOOOOOOOOOOO.........................OOOOOOOOOOOO",
"OOOOOOOOOOOOOOOOOOOOOOOOOOOOOOOOOOOOOOOOOOOOOOOOOOO",
"OOOOOOOOOOOOOOOOOOOOOOOOOOOOOOOOOOOOOOOOOOOOOOOOOOO",
"OOOOOOOOOOOOOOOOOOOOOOOOOOOOOOOOOOOOOOOOOOOOOOOOOOO",
"OOOOOOOOOOOOOOOOOOOOOOOOOOOOOOOOOOOOOOOOOOOOOOOOOOO",
"OOOOOOOOOOOOOOOOOOOOOOOOOOOOOOOOOOOOOOOOOOOOOOOOOOO",
"OOOOOOOOOOOOOOOOOOOOOOOOOOOOOOOOOOOOOOOOOOOOOOOOOOO",
"OOOOOOOOOOOOOOOOOOOOOOOOOOOOOOOOOOOOOOOOOOOOOOOOOOO",
"OOOOOOOOOOOOOOOOOOOOOOOOOOOOOOOOOOOOOOOOOOOOOOOOOOO",
"OOOOOOOOOOOOOOOOOOOOOOOOOOOOOOOOOOOOOOOOOOOOOOOOOOO",
"OOOOOOOOOOOOOOOOOOOOOOOOOOOOOOOOOOOOOOOOOOOOOOOOOOO",
"OOOOOOOOOOOOOOOOOOOOOOOOOOOOOOOOOOOOOOOOOOOOOOOOOOO"
};
