/* XPM */
static char *info[] = {
"20 48 5 1",
" 	c None",
"X	c darkgreen",
":	c black",
".	c white",
"#	c black",
"                    ",
"                    ",
"       ....         ",
"     ..XoXo##       ",
"    ..XoXoXo##      ",
"   ..XoXoXoXo##     ",
"   ..oXoXoXoX##     ",
"   ..XoXoXoXo##     ",
"   ..oXoXoXoX##     ",
"   ..XoXoXoXo##     ",
"   ..oXoXoXoX##     ",
"    ..oXoXoX##      ",
"     ..oXoX##       ",
"      .#####        ",
"                    ",
"                    ",
"  ............      ",
" ..XXXXXXXXXX##     ",
" ..XXXXXXXXXX##     ",
" ..XXXXXXXXXX##     ",
"  ..XXXXXXXXX##     ",
"   ..XXXXXXXX##     ",
"    ..XXXXXXX##     ",
"     ..XXXXXX##     ",
"      ..XXXXX##     ",
"      ..XXXXX##     ",
"      ..XXXXX##     ",
"      ..XXXXX##     ",
"      ..XXXXX##     ",
"      ..XXXXX##     ",
"      ..XXXXX##     ",
"      ..XXXXX##     ",
"      ..XXXXX##     ",
"      ..XXXXX##     ",
"      ..XXXXX##     ",
"      ..XXXXX##     ",
"      ..XXXXX##     ",
"      ..XXXXX##     ",
"      ..XXXXX##     ",
"   .....XXXXX#####  ",
" ..XXXXXXXXXXXXXX## ",
" ..XXXXXXXXXXXXXX## ",
" ..XXXXXXXXXXXXXX## ",
" ..XXXXXXXXXXXXXX## ",
" ..XXXXXXXXXXXXXX## ",
" ..XXXXXXXXXXXXXX## ",
"  .################ ",
"                    "
};
