/* XPM */
/* Drawn for the K Desktop Environment */
/* See http://www.kde.org */
static char*question[]={
"48 48 4 1",
"b c #000000",
"a c #ffffff",
"# c #a0a0a4",
". c None",
"................................................",
"................................................",
"................................................",
"................................................",
"................................................",
"................................................",
"................................................",
"................................................",
"................................................",
"................................................",
"...................########.....................",
"................###aaaaaaaa###..................",
"..............##aaaaaaaaaaaaaa##................",
".............#aaaaaaaaaaaaaaaaaa#...............",
"............#aaaaaaaabbbbbaaaaaaab..............",
"...........#aaaaaaaabaaaabbaaaaaaab.............",
"..........#aaaaaaaabbbaaaabbaaaaaaab............",
".........#aaaaaaaaabbbbaaabbaaaaaaaab...........",
".........#aaaaaaaaaabbaaabbbaaaaaaaab#..........",
"........#aaaaaaaaaaaaaaabbbbaaaaaaaaab#.........",
"........#aaaaaaaaaaaaaabbbbaaaaaaaaaab#.........",
"........#aaaaaaaaaaaabbbbbbaaaaaaaaaab##........",
"........#aaaaaaaaaaaabbbbbaaaaaaaaaaab##........",
"........#aaaaaaaaaaaabbbaaaaaaaaaaaaab##........",
"........#aaaaaaaaaaaabbaaaaaaaaaaaaaab##........",
"........#aaaaaaaaaaaabaaaaaaaaaaaaaaab##........",
".........#aaaaaaaaaaabaaaaaaaaaaaaaab###........",
".........#aaaaaaaaaaaaaaaaaaaaaaaaaab###........",
"..........#aaaaaaaaaabbaaaaaaaaaaaab###.........",
"...........baaaaaaaabbbbaaaaaaaaaab####.........",
"............baaaaaaaabbaaaaaaaaaab####..........",
".............baaaaaaaaaaaaaaaaaab####...........",
"..............bbaaaaaaaaaaaaaabb####............",
"...............#bbbaaaaaaaabbb#####.............",
"................###bbbaaaab#######..............",
"..................####baaab#####................",
".....................#baaab##...................",
".......................baab##...................",
"........................bab##...................",
".........................bb##...................",
"..........................###...................",
"...........................##...................",
"................................................",
"................................................",
"................................................",
"................................................",
"................................................",
"................................................"};

